<svg xmlns="http://www.w3.org/2000/svg" xmlns:xlink="http://www.w3.org/1999/xlink" width="1920" zoomAndPan="magnify" viewBox="0 0 1440 809.999993" height="1080" preserveAspectRatio="xMidYMid meet" version="1.0"><defs><g/><clipPath id="aa90cb8fe3"><path d="M 547.078125 361.421875 L 720.328125 361.421875 L 720.328125 451.421875 L 547.078125 451.421875 Z M 547.078125 361.421875 " clip-rule="nonzero"/></clipPath></defs><g clip-path="url(#aa90cb8fe3)"><path fill="#38b6ff" d="M 709.308594 451.375 L 559.460938 451.375 C 555.886719 451.421875 552.5 449.683594 550.433594 446.722656 C 548.503906 444.046875 547.375 440.476562 547.28125 436.671875 C 547.1875 432.867188 548.128906 429.25 549.960938 426.574219 C 551.84375 423.566406 555.132812 421.6875 558.707031 421.546875 L 558.753906 422.25 L 558.707031 421.546875 C 561.152344 421.453125 563.269531 421.359375 564.253906 421.359375 C 565.054688 411.496094 568.582031 404.261719 574.835938 399.796875 C 580.996094 395.382812 588.609375 394.632812 593.925781 394.726562 C 597.074219 394.773438 600.179688 395.148438 603.234375 395.804688 C 603.75 389.886719 605.632812 384.15625 608.734375 379.082031 C 617.761719 364.472656 633.984375 361.421875 646.070312 361.421875 C 667.933594 361.421875 678.277344 372.929688 683.121094 382.605469 C 686.222656 388.996094 688.007812 395.898438 688.386719 402.992188 C 697.648438 403.039062 706.394531 407.265625 712.128906 414.5 C 717.207031 420.699219 720.21875 428.96875 720.21875 436.578125 C 720.21875 445.550781 715.9375 451.375 709.308594 451.375 Z M 593.078125 396.085938 C 587.625 396.085938 581.042969 397.074219 575.679688 400.878906 C 569.664062 405.152344 566.277344 412.292969 565.617188 422.015625 C 565.570312 422.390625 565.289062 422.675781 564.914062 422.675781 C 564.867188 422.675781 562.1875 422.722656 558.753906 422.863281 C 551.703125 423.191406 548.597656 430.238281 548.738281 436.578125 C 548.878906 442.917969 552.3125 449.917969 559.460938 449.917969 L 709.261719 449.917969 C 716.316406 449.917969 718.808594 443.011719 718.808594 436.578125 C 718.808594 429.296875 715.890625 421.359375 711 415.394531 C 706.910156 410.367188 699.527344 404.355469 687.632812 404.355469 C 687.257812 404.355469 686.929688 404.027344 686.929688 403.648438 C 686.644531 396.511719 684.90625 389.558594 681.757812 383.121094 C 675.03125 369.640625 662.996094 362.832031 646.070312 362.832031 C 629.140625 362.832031 616.964844 368.46875 610.050781 379.695312 C 606.902344 384.8125 605.066406 390.636719 604.691406 396.652344 C 604.691406 396.886719 604.597656 397.074219 604.410156 397.214844 C 604.222656 397.355469 604.035156 397.402344 603.796875 397.308594 C 600.273438 396.511719 596.699219 396.085938 593.078125 396.085938 Z M 593.078125 396.085938 " fill-opacity="1" fill-rule="nonzero"/></g><g fill="#38b6ff" fill-opacity="1"><g transform="translate(588.882619, 433.912492)"><g><path d="M 12.90625 0 L 14.578125 0 L 27.484375 -23.933594 L 25.878906 -23.933594 L 13.757812 -1.46875 L 13.726562 -1.46875 L 1.605469 -23.933594 L 0 -23.933594 Z M 12.90625 0 "/></g></g></g><g fill="#38b6ff" fill-opacity="1"><g transform="translate(616.362926, 433.912492)"><g><path d="M 1.707031 0 L 3.105469 0 L 3.105469 -23.933594 L 1.707031 -23.933594 Z M 1.707031 0 "/></g></g></g><g fill="#38b6ff" fill-opacity="1"><g transform="translate(621.176248, 433.912492)"><g><path d="M 12.90625 0 L 14.578125 0 L 27.484375 -23.933594 L 25.878906 -23.933594 L 13.757812 -1.46875 L 13.726562 -1.46875 L 1.605469 -23.933594 L 0 -23.933594 Z M 12.90625 0 "/></g></g></g><g fill="#38b6ff" fill-opacity="1"><g transform="translate(648.656555, 433.912492)"><g><path d="M 1.707031 0 L 3.105469 0 L 3.105469 -23.933594 L 1.707031 -23.933594 Z M 1.707031 0 "/></g></g></g><g fill="#38b6ff" fill-opacity="1"><g transform="translate(653.469877, 433.912492)"><g><path d="M 1.707031 0 L 14.679688 0 C 23.695312 0 28.679688 -4.269531 28.679688 -11.949219 C 28.679688 -19.664062 23.695312 -23.933594 14.679688 -23.933594 L 1.707031 -23.933594 Z M 3.105469 -1.332031 L 3.105469 -22.601562 L 14.679688 -22.601562 C 22.773438 -22.601562 27.277344 -18.8125 27.277344 -11.949219 C 27.277344 -5.121094 22.773438 -1.332031 14.679688 -1.332031 Z M 3.105469 -1.332031 "/></g></g></g></svg>